<mxfile host="Electron" modified="2023-05-19T03:53:45.524Z" agent="Mozilla/5.0 (Windows NT 10.0; Win64; x64) AppleWebKit/537.36 (KHTML, like Gecko) draw.io/21.2.8 Chrome/112.0.5615.165 Electron/24.2.0 Safari/537.36" etag="05O95mMAM1OSDxrN8Dgy" version="21.2.8" type="device">
  <diagram id="p1WFtV5cTaJLbCV86L4F" name="Page-1">
    <mxGraphModel dx="121" dy="629" grid="1" gridSize="10" guides="1" tooltips="1" connect="1" arrows="1" fold="1" page="1" pageScale="1" pageWidth="1169" pageHeight="827" math="0" shadow="0">
      <root>
        <mxCell id="0" />
        <mxCell id="1" parent="0" />
        <mxCell id="Lrtluq5l5MD6FJIpUNIz-31" value=":user.php" style="shape=umlLifeline;perimeter=lifelinePerimeter;whiteSpace=wrap;html=1;container=0;collapsible=0;recursiveResize=0;outlineConnect=0;" parent="1" vertex="1">
          <mxGeometry x="2160" y="132.57" width="156.72" height="547.43" as="geometry" />
        </mxCell>
        <mxCell id="Lrtluq5l5MD6FJIpUNIz-32" value="click &quot;Edit&quot;" style="html=1;verticalAlign=bottom;endArrow=block;rounded=0;elbow=vertical;" parent="1" edge="1">
          <mxGeometry x="-0.0586" y="3" width="80" relative="1" as="geometry">
            <mxPoint x="1409.9" y="210.57" as="sourcePoint" />
            <mxPoint x="1589.9" y="210.57" as="targetPoint" />
            <mxPoint as="offset" />
          </mxGeometry>
        </mxCell>
        <mxCell id="Lrtluq5l5MD6FJIpUNIz-33" value="" style="shape=umlLifeline;participant=umlActor;perimeter=lifelinePerimeter;whiteSpace=wrap;html=1;container=0;collapsible=0;recursiveResize=0;verticalAlign=top;spacingTop=36;outlineConnect=0;fontFamily=Helvetica;fontSize=12;fontColor=default;align=center;strokeColor=default;fillColor=default;size=50;" parent="1" vertex="1">
          <mxGeometry x="1355" y="162.71" width="46.09" height="497.29" as="geometry" />
        </mxCell>
        <mxCell id="Lrtluq5l5MD6FJIpUNIz-34" value="Individual" style="text;html=1;align=center;verticalAlign=middle;resizable=1;points=[];autosize=1;strokeColor=none;fillColor=none;container=0;movable=1;rotatable=1;deletable=1;editable=1;connectable=1;locked=0;" parent="1" vertex="1">
          <mxGeometry x="1350" y="127.57" width="70" height="30" as="geometry" />
        </mxCell>
        <mxCell id="Lrtluq5l5MD6FJIpUNIz-35" value=":profile.php" style="shape=umlLifeline;perimeter=lifelinePerimeter;whiteSpace=wrap;html=1;container=0;collapsible=0;recursiveResize=0;outlineConnect=0;" parent="1" vertex="1">
          <mxGeometry x="1499.9" y="127.57" width="199.75" height="542.43" as="geometry" />
        </mxCell>
        <mxCell id="Lrtluq5l5MD6FJIpUNIz-38" value="" style="html=1;points=[];perimeter=orthogonalPerimeter;container=0;" parent="1" vertex="1">
          <mxGeometry x="1592.09" y="212.4" width="15.37" height="37.6" as="geometry" />
        </mxCell>
        <mxCell id="Lrtluq5l5MD6FJIpUNIz-40" value=":editcategory.php" style="shape=umlLifeline;perimeter=lifelinePerimeter;whiteSpace=wrap;html=1;container=0;collapsible=0;recursiveResize=0;outlineConnect=0;" parent="1" vertex="1">
          <mxGeometry x="1779.9" y="127.57" width="156.72" height="542.43" as="geometry" />
        </mxCell>
        <mxCell id="Lrtluq5l5MD6FJIpUNIz-41" value="&lt;font style=&quot;font-size: 14px;&quot;&gt;&lt;b&gt;&lt;u&gt;Edit Interest Category&lt;/u&gt;&lt;/b&gt;&lt;/font&gt;" style="text;html=1;align=center;verticalAlign=middle;resizable=0;points=[];autosize=1;strokeColor=none;fillColor=none;" parent="1" vertex="1">
          <mxGeometry x="1665.46" y="77.57" width="170" height="30" as="geometry" />
        </mxCell>
        <mxCell id="Lrtluq5l5MD6FJIpUNIz-42" value="redirect toeditcategory.php" style="html=1;verticalAlign=bottom;endArrow=block;rounded=0;elbow=vertical;exitX=1.016;exitY=0.984;exitDx=0;exitDy=0;exitPerimeter=0;" parent="1" edge="1" source="Lrtluq5l5MD6FJIpUNIz-38">
          <mxGeometry x="-0.0586" y="3" width="80" relative="1" as="geometry">
            <mxPoint x="1620" y="250" as="sourcePoint" />
            <mxPoint x="1840" y="250" as="targetPoint" />
            <mxPoint as="offset" />
          </mxGeometry>
        </mxCell>
        <mxCell id="Lrtluq5l5MD6FJIpUNIz-43" value="" style="html=1;points=[];perimeter=orthogonalPerimeter;container=0;" parent="1" vertex="1">
          <mxGeometry x="1850.57" y="247.57" width="15.37" height="112.43" as="geometry" />
        </mxCell>
        <mxCell id="Lrtluq5l5MD6FJIpUNIz-53" value="" style="html=1;points=[];perimeter=orthogonalPerimeter;container=0;" parent="1" vertex="1">
          <mxGeometry x="1850.5700000000002" y="437.56999999999994" width="15.37" height="40" as="geometry" />
        </mxCell>
        <mxCell id="Lrtluq5l5MD6FJIpUNIz-58" value="" style="html=1;points=[];perimeter=orthogonalPerimeter;container=0;" parent="1" vertex="1">
          <mxGeometry x="2230.67" y="360" width="15.37" height="80" as="geometry" />
        </mxCell>
        <mxCell id="nhdArHmGTVHR8ykfnRJ2-3" value="updateCategories ($userid, $_POST[&#39;category1&#39;],&amp;nbsp;&amp;nbsp;" style="html=1;verticalAlign=bottom;endArrow=block;rounded=0;elbow=vertical;" edge="1" parent="1">
          <mxGeometry x="-0.0586" y="3" width="80" relative="1" as="geometry">
            <mxPoint x="1870" y="360" as="sourcePoint" />
            <mxPoint x="2230" y="360" as="targetPoint" />
            <mxPoint as="offset" />
          </mxGeometry>
        </mxCell>
        <mxCell id="nhdArHmGTVHR8ykfnRJ2-5" value="$_SESSION[&#39;successStatus&#39;] = &quot;Categories successfully updated.&quot;" style="html=1;verticalAlign=bottom;endArrow=open;dashed=1;endSize=8;rounded=0;elbow=vertical;exitX=0.19;exitY=1.006;exitDx=0;exitDy=0;exitPerimeter=0;" edge="1" parent="1" source="Lrtluq5l5MD6FJIpUNIz-58">
          <mxGeometry x="0.0284" y="20" relative="1" as="geometry">
            <mxPoint x="2174.28" y="440" as="sourcePoint" />
            <mxPoint x="1870" y="440" as="targetPoint" />
            <mxPoint as="offset" />
            <Array as="points">
              <mxPoint x="2069.7293650793654" y="440.3523424494649" />
            </Array>
          </mxGeometry>
        </mxCell>
        <mxCell id="nhdArHmGTVHR8ykfnRJ2-7" value="display form" style="html=1;verticalAlign=bottom;endArrow=open;dashed=1;endSize=8;rounded=0;elbow=vertical;" edge="1" parent="1" target="Lrtluq5l5MD6FJIpUNIz-33">
          <mxGeometry x="0.059" relative="1" as="geometry">
            <mxPoint x="1850.57" y="288.82" as="sourcePoint" />
            <mxPoint x="1601.53" y="288.82" as="targetPoint" />
            <mxPoint as="offset" />
            <Array as="points">
              <mxPoint x="1746.0193650793651" y="289.1723424494649" />
            </Array>
          </mxGeometry>
        </mxCell>
        <mxCell id="nhdArHmGTVHR8ykfnRJ2-8" value="select interested categories" style="html=1;verticalAlign=bottom;endArrow=block;rounded=0;elbow=vertical;" edge="1" parent="1">
          <mxGeometry x="-0.0586" y="3" width="80" relative="1" as="geometry">
            <mxPoint x="1380" y="340" as="sourcePoint" />
            <mxPoint x="1840" y="340" as="targetPoint" />
            <mxPoint as="offset" />
          </mxGeometry>
        </mxCell>
        <mxCell id="nhdArHmGTVHR8ykfnRJ2-10" value="&lt;font style=&quot;font-size: 11px;&quot;&gt;$_POST[&#39;category2&#39;],$_POST[&#39;category3&#39;], $_POST[&#39;category4&#39;], $_POST[&#39;category5&#39;])&lt;/font&gt;" style="text;whiteSpace=wrap;html=1;" vertex="1" parent="1">
          <mxGeometry x="1890" y="360" width="320" height="40" as="geometry" />
        </mxCell>
        <mxCell id="nhdArHmGTVHR8ykfnRJ2-12" value="" style="html=1;points=[];perimeter=orthogonalPerimeter;container=0;" vertex="1" parent="1">
          <mxGeometry x="1592.09" y="477.57" width="15.37" height="40" as="geometry" />
        </mxCell>
        <mxCell id="nhdArHmGTVHR8ykfnRJ2-14" value="&quot;Categories successfully updated.&quot;&amp;nbsp;" style="html=1;verticalAlign=bottom;endArrow=open;dashed=1;endSize=8;rounded=0;elbow=vertical;" edge="1" parent="1">
          <mxGeometry x="0.0855" relative="1" as="geometry">
            <mxPoint x="1850.57" y="477.57" as="sourcePoint" />
            <mxPoint x="1610" y="478" as="targetPoint" />
            <mxPoint as="offset" />
            <Array as="points">
              <mxPoint x="1766.2993650793653" y="477.9223424494649" />
            </Array>
          </mxGeometry>
        </mxCell>
        <mxCell id="nhdArHmGTVHR8ykfnRJ2-15" value="Redirected to profile.php" style="text;whiteSpace=wrap;html=1;" vertex="1" parent="1">
          <mxGeometry x="1650" y="477.57" width="160" height="20" as="geometry" />
        </mxCell>
        <mxCell id="nhdArHmGTVHR8ykfnRJ2-17" value="&quot;Categories successfully updated.&quot;&amp;nbsp;" style="html=1;verticalAlign=bottom;endArrow=open;dashed=1;endSize=8;rounded=0;elbow=vertical;" edge="1" parent="1">
          <mxGeometry x="0.0855" relative="1" as="geometry">
            <mxPoint x="1592.09" y="517.57" as="sourcePoint" />
            <mxPoint x="1380" y="518" as="targetPoint" />
            <mxPoint as="offset" />
            <Array as="points">
              <mxPoint x="1507.8193650793653" y="517.922342449465" />
            </Array>
          </mxGeometry>
        </mxCell>
      </root>
    </mxGraphModel>
  </diagram>
</mxfile>
